<svg version="1.1" viewBox="0.0 0.0 768.0 768.0" fill="none" stroke="none" stroke-linecap="square" stroke-miterlimit="10" xmlns:xlink="http://www.w3.org/1999/xlink" xmlns="http://www.w3.org/2000/svg"><clipPath id="p.0"><path d="m0 0l768.0 0l0 768.0l-768.0 0l0 -768.0z" clip-rule="nonzero"/></clipPath><g clip-path="url(#p.0)"><path fill="#fefee8" fill-opacity="0.5" d="m656.4042 320.9672l91.653564 0l0 51.748016l-91.653564 0z" fill-rule="evenodd"/><path stroke="#595959" stroke-width="2.0" stroke-linejoin="round" stroke-linecap="butt" d="m656.4042 320.9672l91.653564 0l0 51.748016l-91.653564 0z" fill-rule="evenodd"/><path fill="#fefee8" fill-opacity="0.5" d="m664.4042 369.06824l91.653564 0l0 51.748047l-91.653564 0z" fill-rule="evenodd"/><path stroke="#595959" stroke-width="2.0" stroke-linejoin="round" stroke-linecap="butt" d="m664.4042 369.06824l91.653564 0l0 51.748047l-91.653564 0z" fill-rule="evenodd"/><path fill="#fefee8" fill-opacity="0.5" d="m656.4042 420.0735l91.653564 0l0 51.748047l-91.653564 0z" fill-rule="evenodd"/><path stroke="#595959" stroke-width="2.0" stroke-linejoin="round" stroke-linecap="butt" d="m656.4042 420.0735l91.653564 0l0 51.748047l-91.653564 0z" fill-rule="evenodd"/><path fill="#fefee8" fill-opacity="0.5" d="m656.4042 471.94226l91.653564 0l0 51.748047l-91.653564 0z" fill-rule="evenodd"/><path stroke="#595959" stroke-width="2.0" stroke-linejoin="round" stroke-linecap="butt" d="m656.4042 471.94226l91.653564 0l0 51.748047l-91.653564 0z" fill-rule="evenodd"/><path fill="#fefee8" fill-opacity="0.5" d="m381.44357 694.79266l91.653534 0l0 51.748047l-91.653534 0z" fill-rule="evenodd"/><path stroke="#595959" stroke-width="6.0" stroke-linejoin="round" stroke-linecap="butt" d="m381.44357 694.79266l91.653534 0l0 51.748047l-91.653534 0z" fill-rule="evenodd"/><path fill="#fefee8" fill-opacity="0.5" d="m289.79004 694.79266l91.653534 0l0 51.748047l-91.653534 0z" fill-rule="evenodd"/><path stroke="#595959" stroke-width="2.0" stroke-linejoin="round" stroke-linecap="butt" d="m289.79004 694.79266l91.653534 0l0 51.748047l-91.653534 0z" fill-rule="evenodd"/><path fill="#fefee8" fill-opacity="0.5" d="m289.79004 643.0446l91.653534 0l0 51.748047l-91.653534 0z" fill-rule="evenodd"/><path stroke="#595959" stroke-width="2.0" stroke-linejoin="round" stroke-linecap="butt" d="m289.79004 643.0446l91.653534 0l0 51.748047l-91.653534 0z" fill-rule="evenodd"/><path fill="#fefee8" fill-opacity="0.5" d="m289.79004 590.8163l91.653534 0l0 51.748047l-91.653534 0z" fill-rule="evenodd"/><path stroke="#595959" stroke-width="2.0" stroke-linejoin="round" stroke-linecap="butt" d="m289.79004 590.8163l91.653534 0l0 51.748047l-91.653534 0z" fill-rule="evenodd"/><path fill="#fefee8" fill-opacity="0.5" d="m198.13649 590.8163l91.65355 0l0 51.748047l-91.65355 0z" fill-rule="evenodd"/><path stroke="#595959" stroke-width="2.0" stroke-linejoin="round" stroke-linecap="butt" d="m198.13649 590.8163l91.65355 0l0 51.748047l-91.65355 0z" fill-rule="evenodd"/><path fill="#fefee8" fill-opacity="0.5" d="m289.79004 538.58795l91.653534 0l0 51.747986l-91.653534 0z" fill-rule="evenodd"/><path stroke="#595959" stroke-width="2.0" stroke-linejoin="round" stroke-linecap="butt" d="m289.79004 538.58795l91.653534 0l0 51.747986l-91.653534 0z" fill-rule="evenodd"/><path fill="#fefee8" fill-opacity="0.5" d="m106.48294 598.8163l91.65355 0l0 51.748047l-91.65355 0z" fill-rule="evenodd"/><path stroke="#595959" stroke-width="2.0" stroke-linejoin="round" stroke-linecap="butt" d="m106.48294 598.8163l91.65355 0l0 51.748047l-91.65355 0z" fill-rule="evenodd"/><path fill="#fefee8" fill-opacity="0.5" d="m98.48294 546.58795l91.65355 0l0 51.747986l-91.65355 0z" fill-rule="evenodd"/><path stroke="#595959" stroke-width="2.0" stroke-linejoin="round" stroke-linecap="butt" d="m98.48294 546.58795l91.65355 0l0 51.747986l-91.65355 0z" fill-rule="evenodd"/><path fill="#fefee8" fill-opacity="0.5" d="m106.48294 494.8399l91.65355 0l0 51.748047l-91.65355 0z" fill-rule="evenodd"/><path stroke="#595959" stroke-width="2.0" stroke-linejoin="round" stroke-linecap="butt" d="m106.48294 494.8399l91.65355 0l0 51.748047l-91.65355 0z" fill-rule="evenodd"/><path fill="#fefee8" fill-opacity="0.5" d="m289.79004 486.3596l91.653534 0l0 51.748016l-91.653534 0z" fill-rule="evenodd"/><path stroke="#595959" stroke-width="2.0" stroke-linejoin="round" stroke-linecap="butt" d="m289.79004 486.3596l91.653534 0l0 51.748016l-91.653534 0z" fill-rule="evenodd"/><path fill="#fefee8" fill-opacity="0.5" d="m381.44357 486.3596l91.653534 0l0 51.748016l-91.653534 0z" fill-rule="evenodd"/><path stroke="#595959" stroke-width="2.0" stroke-linejoin="round" stroke-linecap="butt" d="m381.44357 486.3596l91.653534 0l0 51.748016l-91.653534 0z" fill-rule="evenodd"/><path fill="#fefee8" fill-opacity="0.5" d="m473.0971 486.3596l91.653564 0l0 51.748016l-91.653564 0z" fill-rule="evenodd"/><path stroke="#595959" stroke-width="2.0" stroke-linejoin="round" stroke-linecap="butt" d="m473.0971 486.3596l91.653564 0l0 51.748016l-91.653564 0z" fill-rule="evenodd"/><path fill="#fefee8" fill-opacity="0.5" d="m98.48294 444.2651l91.65355 0l0 51.748016l-91.65355 0z" fill-rule="evenodd"/><path stroke="#595959" stroke-width="2.0" stroke-linejoin="round" stroke-linecap="butt" d="m98.48294 444.2651l91.65355 0l0 51.748016l-91.65355 0z" fill-rule="evenodd"/><path fill="#fefee8" fill-opacity="0.5" d="m106.48294 390.86353l91.65355 0l0 51.748016l-91.65355 0z" fill-rule="evenodd"/><path stroke="#595959" stroke-width="2.0" stroke-linejoin="round" stroke-linecap="butt" d="m106.48294 390.86353l91.65355 0l0 51.748016l-91.65355 0z" fill-rule="evenodd"/><path fill="#fefee8" fill-opacity="0.5" d="m473.0971 538.58795l91.653564 0l0 51.747986l-91.653564 0z" fill-rule="evenodd"/><path stroke="#595959" stroke-width="2.0" stroke-linejoin="round" stroke-linecap="butt" d="m473.0971 538.58795l91.653564 0l0 51.747986l-91.653564 0z" fill-rule="evenodd"/><path fill="#fefee8" fill-opacity="0.5" d="m473.0971 590.5761l91.653564 0l0 51.748047l-91.653564 0z" fill-rule="evenodd"/><path stroke="#595959" stroke-width="2.0" stroke-linejoin="round" stroke-linecap="butt" d="m473.0971 590.5761l91.653564 0l0 51.748047l-91.653564 0z" fill-rule="evenodd"/><path fill="#fefee8" fill-opacity="0.5" d="m564.7507 590.8163l91.6535 0l0 51.748047l-91.6535 0z" fill-rule="evenodd"/><path stroke="#595959" stroke-width="2.0" stroke-linejoin="round" stroke-linecap="butt" d="m564.7507 590.8163l91.6535 0l0 51.748047l-91.6535 0z" fill-rule="evenodd"/><path fill="#fefee8" fill-opacity="0.5" d="m198.13649 387.54068l91.65355 0l0 51.748047l-91.65355 0z" fill-rule="evenodd"/><path stroke="#595959" stroke-width="2.0" stroke-linejoin="round" stroke-linecap="butt" d="m198.13649 387.54068l91.65355 0l0 51.748047l-91.65355 0z" fill-rule="evenodd"/><path fill="#fefee8" fill-opacity="0.5" d="m289.79004 387.54068l91.653534 0l0 51.748047l-91.653534 0z" fill-rule="evenodd"/><path stroke="#595959" stroke-width="2.0" stroke-linejoin="round" stroke-linecap="butt" d="m289.79004 387.54068l91.653534 0l0 51.748047l-91.653534 0z" fill-rule="evenodd"/><path fill="#fefee8" fill-opacity="0.5" d="m106.48294 335.79266l91.65355 0l0 51.748016l-91.65355 0z" fill-rule="evenodd"/><path stroke="#595959" stroke-width="2.0" stroke-linejoin="round" stroke-linecap="butt" d="m106.48294 335.79266l91.65355 0l0 51.748016l-91.65355 0z" fill-rule="evenodd"/><path fill="#fefee8" fill-opacity="0.5" d="m14.829396 335.79266l91.65354 0l0 51.748016l-91.65354 0z" fill-rule="evenodd"/><path stroke="#595959" stroke-width="2.0" stroke-linejoin="round" stroke-linecap="butt" d="m14.829396 335.79266l91.65354 0l0 51.748016l-91.65354 0z" fill-rule="evenodd"/><path fill="#fefee8" fill-opacity="0.5" d="m14.829396 284.04462l91.65354 0l0 51.748047l-91.65354 0z" fill-rule="evenodd"/><path stroke="#595959" stroke-width="2.0" stroke-linejoin="round" stroke-linecap="butt" d="m14.829396 284.04462l91.65354 0l0 51.748047l-91.65354 0z" fill-rule="evenodd"/><path fill="#fefee8" fill-opacity="0.5" d="m22.829397 235.3202l91.65354 0l0 51.74803l-91.65354 0z" fill-rule="evenodd"/><path stroke="#595959" stroke-width="2.0" stroke-linejoin="round" stroke-linecap="butt" d="m22.829397 235.3202l91.65354 0l0 51.74803l-91.65354 0z" fill-rule="evenodd"/><path fill="#fefee8" fill-opacity="0.5" d="m14.829396 183.59317l91.65354 0l0 51.74803l-91.65354 0z" fill-rule="evenodd"/><path stroke="#595959" stroke-width="2.0" stroke-linejoin="round" stroke-linecap="butt" d="m14.829396 183.59317l91.65354 0l0 51.74803l-91.65354 0z" fill-rule="evenodd"/><path fill="#fefee8" fill-opacity="0.5" d="m22.829397 131.84514l91.65354 0l0 51.74803l-91.65354 0z" fill-rule="evenodd"/><path stroke="#595959" stroke-width="2.0" stroke-linejoin="round" stroke-linecap="butt" d="m22.829397 131.84514l91.65354 0l0 51.74803l-91.65354 0z" fill-rule="evenodd"/><path fill="#fefee8" fill-opacity="0.5" d="m14.829396 83.120735l91.65354 0l0 51.748024l-91.65354 0z" fill-rule="evenodd"/><path stroke="#595959" stroke-width="2.0" stroke-linejoin="round" stroke-linecap="butt" d="m14.829396 83.120735l91.65354 0l0 51.748024l-91.65354 0z" fill-rule="evenodd"/><path fill="#fefee8" fill-opacity="0.5" d="m106.48294 75.14173l91.65355 0l0 51.74803l-91.65355 0z" fill-rule="evenodd"/><path stroke="#595959" stroke-width="2.0" stroke-linejoin="round" stroke-linecap="butt" d="m106.48294 75.14173l91.65355 0l0 51.74803l-91.65355 0z" fill-rule="evenodd"/><path fill="#fefee8" fill-opacity="0.5" d="m198.13649 34.375328l91.65355 0l0 51.74803l-91.65355 0z" fill-rule="evenodd"/><path stroke="#595959" stroke-width="2.0" stroke-linejoin="round" stroke-linecap="butt" d="m198.13649 34.375328l91.65355 0l0 51.74803l-91.65355 0z" fill-rule="evenodd"/><path fill="#fefee8" fill-opacity="0.5" d="m198.13649 83.120735l91.65355 0l0 51.748024l-91.65355 0z" fill-rule="evenodd"/><path stroke="#595959" stroke-width="2.0" stroke-linejoin="round" stroke-linecap="butt" d="m198.13649 83.120735l91.65355 0l0 51.748024l-91.65355 0z" fill-rule="evenodd"/><path fill="#fefee8" fill-opacity="0.5" d="m198.13649 132.99738l91.65355 0l0 51.74803l-91.65355 0z" fill-rule="evenodd"/><path stroke="#595959" stroke-width="2.0" stroke-linejoin="round" stroke-linecap="butt" d="m198.13649 132.99738l91.65355 0l0 51.74803l-91.65355 0z" fill-rule="evenodd"/><path fill="#fefee8" fill-opacity="0.5" d="m190.13649 185.08398l91.65355 0l0 51.74803l-91.65355 0z" fill-rule="evenodd"/><path stroke="#595959" stroke-width="2.0" stroke-linejoin="round" stroke-linecap="butt" d="m190.13649 185.08398l91.65355 0l0 51.74803l-91.65355 0z" fill-rule="evenodd"/><path fill="#fefee8" fill-opacity="0.5" d="m281.79004 335.72177l91.653534 0l0 51.748047l-91.653534 0z" fill-rule="evenodd"/><path stroke="#595959" stroke-width="2.0" stroke-linejoin="round" stroke-linecap="butt" d="m281.79004 335.72177l91.653534 0l0 51.748047l-91.653534 0z" fill-rule="evenodd"/><path fill="#fefee8" fill-opacity="0.5" d="m289.79004 286.31235l91.653534 0l0 51.748016l-91.653534 0z" fill-rule="evenodd"/><path stroke="#595959" stroke-width="2.0" stroke-linejoin="round" stroke-linecap="butt" d="m289.79004 286.31235l91.653534 0l0 51.748016l-91.653534 0z" fill-rule="evenodd"/><path fill="#fefee8" fill-opacity="0.5" d="m289.79004 234.35957l91.653534 0l0 51.74803l-91.653534 0z" fill-rule="evenodd"/><path stroke="#595959" stroke-width="2.0" stroke-linejoin="round" stroke-linecap="butt" d="m289.79004 234.35957l91.653534 0l0 51.74803l-91.653534 0z" fill-rule="evenodd"/><path fill="#fefee8" fill-opacity="0.5" d="m289.79004 32.454067l91.653534 0l0 51.748035l-91.653534 0z" fill-rule="evenodd"/><path stroke="#595959" stroke-width="2.0" stroke-linejoin="round" stroke-linecap="butt" d="m289.79004 32.454067l91.653534 0l0 51.748035l-91.653534 0z" fill-rule="evenodd"/><path fill="#fefee8" fill-opacity="0.5" d="m381.44357 26.036745l91.653534 0l0 51.74803l-91.653534 0z" fill-rule="evenodd"/><path stroke="#595959" stroke-width="2.0" stroke-linejoin="round" stroke-linecap="butt" d="m381.44357 26.036745l91.653534 0l0 51.74803l-91.653534 0z" fill-rule="evenodd"/><path fill="#fefee8" fill-opacity="0.5" d="m473.0971 32.454067l91.653564 0l0 51.748035l-91.653564 0z" fill-rule="evenodd"/><path stroke="#595959" stroke-width="2.0" stroke-linejoin="round" stroke-linecap="butt" d="m473.0971 32.454067l91.653564 0l0 51.748035l-91.653564 0z" fill-rule="evenodd"/><path fill="#fefee8" fill-opacity="0.5" d="m198.13649 234.35957l91.65355 0l0 51.74803l-91.65355 0z" fill-rule="evenodd"/><path stroke="#595959" stroke-width="2.0" stroke-linejoin="round" stroke-linecap="butt" d="m198.13649 234.35957l91.65355 0l0 51.74803l-91.65355 0z" fill-rule="evenodd"/><path fill="#fefee8" fill-opacity="0.5" d="m564.7507 23.372704l91.6535 0l0 51.74803l-91.6535 0z" fill-rule="evenodd"/><path stroke="#595959" stroke-width="2.0" stroke-linejoin="round" stroke-linecap="butt" d="m564.7507 23.372704l91.6535 0l0 51.74803l-91.6535 0z" fill-rule="evenodd"/><path fill="#fefee8" fill-opacity="0.5" d="m656.4042 31.372704l91.653564 0l0 51.74803l-91.653564 0z" fill-rule="evenodd"/><path stroke="#595959" stroke-width="2.0" stroke-linejoin="round" stroke-linecap="butt" d="m656.4042 31.372704l91.653564 0l0 51.74803l-91.653564 0z" fill-rule="evenodd"/><path fill="#fefee8" fill-opacity="0.5" d="m664.4042 83.120735l91.653564 0l0 51.748024l-91.653564 0z" fill-rule="evenodd"/><path stroke="#595959" stroke-width="2.0" stroke-linejoin="round" stroke-linecap="butt" d="m664.4042 83.120735l91.653564 0l0 51.748024l-91.653564 0z" fill-rule="evenodd"/><path fill="#fefee8" fill-opacity="0.5" d="m656.4042 127.573494l91.653564 0l0 51.748024l-91.653564 0z" fill-rule="evenodd"/><path stroke="#595959" stroke-width="2.0" stroke-linejoin="round" stroke-linecap="butt" d="m656.4042 127.573494l91.653564 0l0 51.748024l-91.653564 0z" fill-rule="evenodd"/><path fill="#fefee8" fill-opacity="0.5" d="m648.4042 179.32152l91.653564 0l0 51.74803l-91.653564 0z" fill-rule="evenodd"/><path stroke="#595959" stroke-width="2.0" stroke-linejoin="round" stroke-linecap="butt" d="m648.4042 179.32152l91.653564 0l0 51.74803l-91.653564 0z" fill-rule="evenodd"/><g filter="url(#shadowFilter-p.1)"><use xlink:href="#p.1" transform="matrix(1.0 0.0 0.0 1.0 0.0 2.0)"/></g><defs><filter id="shadowFilter-p.1" filterUnits="userSpaceOnUse"><feGaussianBlur in="SourceAlpha" stdDeviation="2.0" result="blur"/><feComponentTransfer in="blur" color-interpolation-filters="sRGB"><feFuncR type="linear" slope="0" intercept="0.0"/><feFuncG type="linear" slope="0" intercept="0.0"/><feFuncB type="linear" slope="0" intercept="0.0"/><feFuncA type="linear" slope="0.5" intercept="0"/></feComponentTransfer></filter></defs><g id="p.1"><path fill="#fff2cc" d="m632.6877 274.58792l17.637207 -4.363434l-16.30127 -7.2160034l18.295776 -1.3425903l-14.338074 -9.791687l18.250916 1.7290039l-11.824463 -11.990768l17.504944 4.735138l-8.856262 -13.729507l16.086304 7.558731l-5.5479736 -14.940216l14.049133 10.0920105l-2.0257568 -15.57695l11.472534 12.237381l1.5730591 -15.615234l8.454712 13.912949l5.112488 -15.053146l5.112488 15.053146l8.454712 -13.912949l1.5730591 15.615234l11.472595 -12.237381l-2.0258179 15.57695l14.049133 -10.0920105l-5.5479736 14.940216l16.086365 -7.558731l-8.856262 13.729507l17.504883 -4.735138l-11.824463 11.990768l18.250977 -1.7290039l-14.338074 9.791687l18.295776 1.3425903l-16.30133 7.2160034l17.637268 4.363434l-17.637268 4.363434l16.30133 7.2160034l-18.295776 1.3425903l14.338074 9.791687l-18.250977 -1.7289734l11.824463 11.990753l-17.504883 -4.735138l8.856262 13.729492l-16.086365 -7.558716l5.5479736 14.940216l-14.049133 -10.0920105l2.0258179 15.576935l-11.472595 -12.237366l-1.5730591 15.615234l-8.454712 -13.912964l-5.112488 15.053162l-5.112488 -15.053162l-8.454712 13.912964l-1.5730591 -15.615234l-11.472534 12.237366l2.0257568 -15.576935l-14.049133 10.0920105l5.5479736 -14.940216l-16.086304 7.558716l8.856262 -13.729492l-17.504944 4.735138l11.824463 -11.990753l-18.250916 1.7289734l14.338074 -9.791687l-18.295776 -1.3425903l16.30127 -7.2160034z" fill-rule="evenodd"/><path stroke="#595959" stroke-width="2.0" stroke-linejoin="round" stroke-linecap="butt" d="m632.6877 274.58792l17.637207 -4.363434l-16.30127 -7.2160034l18.295776 -1.3425903l-14.338074 -9.791687l18.250916 1.7290039l-11.824463 -11.990768l17.504944 4.735138l-8.856262 -13.729507l16.086304 7.558731l-5.5479736 -14.940216l14.049133 10.0920105l-2.0257568 -15.57695l11.472534 12.237381l1.5730591 -15.615234l8.454712 13.912949l5.112488 -15.053146l5.112488 15.053146l8.454712 -13.912949l1.5730591 15.615234l11.472595 -12.237381l-2.0258179 15.57695l14.049133 -10.0920105l-5.5479736 14.940216l16.086365 -7.558731l-8.856262 13.729507l17.504883 -4.735138l-11.824463 11.990768l18.250977 -1.7290039l-14.338074 9.791687l18.295776 1.3425903l-16.30133 7.2160034l17.637268 4.363434l-17.637268 4.363434l16.30133 7.2160034l-18.295776 1.3425903l14.338074 9.791687l-18.250977 -1.7289734l11.824463 11.990753l-17.504883 -4.735138l8.856262 13.729492l-16.086365 -7.558716l5.5479736 14.940216l-14.049133 -10.0920105l2.0258179 15.576935l-11.472595 -12.237366l-1.5730591 15.615234l-8.454712 -13.912964l-5.112488 15.053162l-5.112488 -15.053162l-8.454712 13.912964l-1.5730591 -15.615234l-11.472534 12.237366l2.0257568 -15.576935l-14.049133 10.0920105l5.5479736 -14.940216l-16.086304 7.558716l8.856262 -13.729492l-17.504944 4.735138l11.824463 -11.990753l-18.250916 1.7289734l14.338074 -9.791687l-18.295776 -1.3425903l16.30127 -7.2160034z" fill-rule="evenodd"/></g><path fill="#fefee8" fill-opacity="0.5" d="m381.44357 294.31235l91.653534 0l0 51.748016l-91.653534 0z" fill-rule="evenodd"/><path stroke="#595959" stroke-width="2.0" stroke-linejoin="round" stroke-linecap="butt" d="m381.44357 294.31235l91.653534 0l0 51.748016l-91.653534 0z" fill-rule="evenodd"/><path fill="#fefee8" fill-opacity="0.5" d="m473.0971 284.98032l91.653564 0l0 51.748016l-91.653564 0z" fill-rule="evenodd"/><path stroke="#595959" stroke-width="2.0" stroke-linejoin="round" stroke-linecap="butt" d="m473.0971 284.98032l91.653564 0l0 51.748016l-91.653564 0z" fill-rule="evenodd"/><path fill="#fefee8" fill-opacity="0.5" d="m473.0971 231.06955l91.653564 0l0 51.748047l-91.653564 0z" fill-rule="evenodd"/><path stroke="#595959" stroke-width="2.0" stroke-linejoin="round" stroke-linecap="butt" d="m473.0971 231.06955l91.653564 0l0 51.748047l-91.653564 0z" fill-rule="evenodd"/><path fill="#fefee8" fill-opacity="0.5" d="m481.0971 183.59186l91.653564 0l0 51.74803l-91.653564 0z" fill-rule="evenodd"/><path stroke="#595959" stroke-width="2.0" stroke-linejoin="round" stroke-linecap="butt" d="m481.0971 183.59186l91.653564 0l0 51.74803l-91.653564 0z" fill-rule="evenodd"/><path fill="#fefee8" fill-opacity="0.5" d="m473.0971 132.99606l91.653564 0l0 51.74803l-91.653564 0z" fill-rule="evenodd"/><path stroke="#595959" stroke-width="2.0" stroke-linejoin="round" stroke-linecap="butt" d="m473.0971 132.99606l91.653564 0l0 51.74803l-91.653564 0z" fill-rule="evenodd"/><path fill="#fefee8" fill-opacity="0.5" d="m381.44357 124.55249l91.653534 0l0 51.74803l-91.653534 0z" fill-rule="evenodd"/><path stroke="#595959" stroke-width="2.0" stroke-linejoin="round" stroke-linecap="butt" d="m381.44357 124.55249l91.653534 0l0 51.74803l-91.653534 0z" fill-rule="evenodd"/><path fill="#fefee8" fill-opacity="0.5" d="m289.79004 133.40552l91.653534 0l0 51.74803l-91.653534 0z" fill-rule="evenodd"/><path stroke="#595959" stroke-width="2.0" stroke-linejoin="round" stroke-linecap="butt" d="m289.79004 133.40552l91.653534 0l0 51.74803l-91.653534 0z" fill-rule="evenodd"/><path fill="#000000" fill-opacity="0.0" d="m636.89764 247.84776l122.36218 0l0 66.23622l-122.36218 0z" fill-rule="evenodd"/><path fill="#000000" d="m673.42084 270.97528l-7.546875 0l0.609375 -2.828125q0.421875 -1.96875 0.375 -2.234375q-0.03125 -0.265625 -0.265625 -0.265625q-0.1875 0 -0.328125 0.203125q-0.140625 0.203125 -0.5 1.921875l-2.46875 11.640625q-0.328125 1.5 -0.28125 1.765625q0.0625 0.265625 0.265625 0.265625q0.28125 0 0.484375 -0.328125q0.21875 -0.34375 0.546875 -1.90625l0.484375 -2.25l-1.265625 0l1.046875 -4.9375l8.625 0l-3.03125 14.265625l-5.046875 0l-0.0625 -0.9375q-0.09375 0.15625 -1.359375 0.8125q-1.25 0.640625 -2.75 0.640625q-1.75 0 -3.09375 -0.84375q-1.34375 -0.859375 -1.875 -2.125q-0.515625 -1.265625 -0.4375 -2.59375q0.09375 -1.34375 0.640625 -3.890625l1.515625 -7.1875q0.765625 -3.5625 1.53125 -5.265625q0.765625 -1.71875 3.03125 -3.15625q2.265625 -1.453125 5.28125 -1.453125q2.9375 0 4.671875 1.25q1.734375 1.234375 1.96875 2.953125q0.25 1.71875 -0.40625 4.8125l-0.359375 1.671875zm15.852966 4.640625q-0.78125 3.6875 -1.3125 5.3125q-0.515625 1.609375 -1.828125 3.0q-1.296875 1.390625 -3.140625 2.140625q-1.828125 0.734375 -4.0 0.734375q-2.078125 0 -3.625 -0.6875q-1.53125 -0.703125 -2.28125 -2.109375q-0.734375 -1.421875 -0.59375 -3.015625q0.15625 -1.59375 0.953125 -5.375l0.890625 -4.140625q0.78125 -3.6875 1.296875 -5.296875q0.53125 -1.625 1.828125 -3.015625q1.296875 -1.390625 3.140625 -2.125q1.84375 -0.75 4.03125 -0.75q2.0625 0 3.59375 0.703125q1.546875 0.6875 2.28125 2.109375q0.734375 1.40625 0.59375 3.0q-0.140625 1.59375 -0.9375 5.375l-0.890625 4.140625zm-5.859375 -7.953125q0.34375 -1.578125 0.296875 -1.796875q-0.03125 -0.21875 -0.203125 -0.21875q-0.15625 0 -0.3125 0.171875q-0.15625 0.171875 -0.515625 1.84375l-2.40625 11.3125q-0.421875 2.0 -0.390625 2.234375q0.03125 0.234375 0.234375 0.234375q0.1875 0 0.34375 -0.296875q0.15625 -0.3125 0.59375 -2.359375l2.359375 -11.125zm10.109558 -6.859375l5.34375 0q4.640625 0 6.28125 0.453125q1.640625 0.453125 2.375 1.546875q0.734375 1.09375 0.6875 2.390625q-0.03125 1.28125 -0.78125 4.78125l-1.8125 8.484375q-0.703125 3.359375 -1.328125 4.59375q-0.609375 1.234375 -1.65625 1.96875q-1.046875 0.71875 -2.34375 1.0q-1.28125 0.265625 -3.609375 0.265625l-8.578125 0l5.421875 -25.484375zm6.40625 5.390625l-3.125 14.703125q0.375 0 0.625 -0.3125q0.25 -0.328125 0.734375 -2.59375l2.0 -9.40625q0.328125 -1.578125 0.328125 -1.875q0 -0.296875 -0.171875 -0.40625q-0.15625 -0.109375 -0.390625 -0.109375zm23.038513 9.421875q-0.78125 3.6875 -1.3125 5.3125q-0.515625 1.609375 -1.828125 3.0q-1.296875 1.390625 -3.140625 2.140625q-1.828125 0.734375 -4.0 0.734375q-2.078125 0 -3.625 -0.6875q-1.53125 -0.703125 -2.28125 -2.109375q-0.734375 -1.421875 -0.59375 -3.015625q0.15625 -1.59375 0.953125 -5.375l0.890625 -4.140625q0.78125 -3.6875 1.296875 -5.296875q0.53125 -1.625 1.828125 -3.015625q1.296875 -1.390625 3.140625 -2.125q1.84375 -0.75 4.03125 -0.75q2.0625 0 3.59375 0.703125q1.546875 0.6875 2.28125 2.109375q0.734375 1.40625 0.59375 3.0q-0.140625 1.59375 -0.9375 5.375l-0.890625 4.140625zm-5.859375 -7.953125q0.34375 -1.578125 0.296875 -1.796875q-0.03125 -0.21875 -0.203125 -0.21875q-0.15625 0 -0.3125 0.171875q-0.15625 0.171875 -0.515625 1.84375l-2.40625 11.3125q-0.421875 2.0 -0.390625 2.234375q0.03125 0.234375 0.234375 0.234375q0.1875 0 0.34375 -0.296875q0.15625 -0.3125 0.59375 -2.359375l2.359375 -11.125zm24.062622 -6.859375l-1.296875 6.09375l-3.75 0l-4.125 19.390625l-7.546875 0l4.125 -19.390625l-3.734375 0l1.296875 -6.09375l15.03125 0zm7.92749 0l-5.203125 19.5l-5.859375 0l3.109375 -19.5l7.953125 0zm-4.640625 19.390625l-1.296875 6.09375l-6.90625 0l1.296875 -6.09375l6.90625 0z" fill-rule="nonzero"/></g></svg>